<svg width="900" height="1200" viewBox="0 0 900 1200" xmlns="http://www.w3.org/2000/svg">
  <defs>
    <linearGradient id="page" x1="0" y1="0" x2="0" y2="1">
      <stop offset="0%" stop-color="#f7f0e1" />
      <stop offset="100%" stop-color="#f0e6d3" />
    </linearGradient>
    <linearGradient id="shadow" x1="0" y1="0" x2="1" y2="0">
      <stop offset="0%" stop-color="#d8c1a2" stop-opacity="0.2" />
      <stop offset="100%" stop-color="#b89a78" stop-opacity="0.5" />
    </linearGradient>
  </defs>
  <rect width="900" height="1200" fill="#fefaf4" />
  <rect x="120" y="160" width="660" height="880" rx="28" fill="url(#page)" stroke="#d7b588" stroke-width="6" />
  <rect x="160" y="220" width="180" height="780" fill="#d7b588" opacity="0.25" />
  <rect x="520" y="220" width="180" height="780" fill="url(#shadow)" opacity="0.6" />
  <line x1="200" y1="280" x2="700" y2="280" stroke="#c9a16c" stroke-width="3" />
  <line x1="200" y1="360" x2="700" y2="360" stroke="#c9a16c" stroke-width="3" />
  <line x1="200" y1="440" x2="700" y2="440" stroke="#c9a16c" stroke-width="3" />
  <line x1="200" y1="520" x2="700" y2="520" stroke="#d8c1a2" stroke-width="2" />
  <line x1="200" y1="600" x2="700" y2="600" stroke="#d8c1a2" stroke-width="2" />
  <line x1="200" y1="680" x2="700" y2="680" stroke="#d8c1a2" stroke-width="2" />
  <line x1="200" y1="760" x2="700" y2="760" stroke="#d8c1a2" stroke-width="2" />
  <line x1="200" y1="840" x2="700" y2="840" stroke="#d8c1a2" stroke-width="2" />
  <line x1="200" y1="920" x2="700" y2="920" stroke="#d8c1a2" stroke-width="2" />
  <circle cx="450" cy="1060" r="42" fill="#c9a16c" opacity="0.3" />
  <text x="450" y="330" text-anchor="middle" font-family="Cormorant, 'Times New Roman', serif" font-size="48" fill="#98764d">Libro</text>
  <text x="450" y="395" text-anchor="middle" font-family="Cormorant, 'Times New Roman', serif" font-size="48" fill="#98764d">Curado</text>
</svg>
