<svg width="900" height="1200" viewBox="0 0 900 1200" xmlns="http://www.w3.org/2000/svg">
  <defs>
    <linearGradient id="panel" x1="0" y1="0" x2="0" y2="1">
      <stop offset="0%" stop-color="#fef9f0" />
      <stop offset="100%" stop-color="#f2e4ce" />
    </linearGradient>
  </defs>
  <rect width="900" height="1200" fill="#fdf4e6" />
  <rect x="200" y="160" width="500" height="880" rx="32" fill="url(#panel)" stroke="#d7b588" stroke-width="6" />
  <rect x="260" y="220" width="380" height="200" rx="14" fill="#faf0e1" stroke="#d4b283" stroke-width="3" />
  <g fill="#b18c60">
    <rect x="290" y="250" width="40" height="40" rx="4" />
    <rect x="350" y="250" width="40" height="40" rx="4" />
    <rect x="410" y="250" width="40" height="40" rx="4" />
    <rect x="470" y="250" width="40" height="40" rx="4" />
    <rect x="530" y="250" width="40" height="40" rx="4" />

    <rect x="290" y="310" width="40" height="40" rx="4" />
    <rect x="350" y="310" width="40" height="40" rx="4" />
    <rect x="410" y="310" width="40" height="40" rx="4" />
    <rect x="470" y="310" width="40" height="40" rx="4" />
    <rect x="530" y="310" width="40" height="40" rx="4" />

    <rect x="290" y="370" width="40" height="40" rx="4" />
    <rect x="350" y="370" width="40" height="40" rx="4" />
    <rect x="410" y="370" width="40" height="40" rx="4" />
    <rect x="470" y="370" width="40" height="40" rx="4" />
    <rect x="530" y="370" width="40" height="40" rx="4" />
  </g>
  <rect x="260" y="460" width="380" height="220" rx="18" fill="#fefaf4" stroke="#d4b283" stroke-width="3" />
  <rect x="310" y="510" width="80" height="80" rx="12" fill="#c29c6a" opacity="0.6" />
  <rect x="410" y="510" width="180" height="20" rx="10" fill="#d0a16a" opacity="0.8" />
  <rect x="410" y="550" width="160" height="16" rx="8" fill="#d0a16a" opacity="0.6" />
  <rect x="410" y="590" width="120" height="16" rx="7" fill="#d0a16a" opacity="0.4" />

  <rect x="260" y="720" width="380" height="220" rx="18" fill="#fefaf4" stroke="#d4b283" stroke-width="3" />
  <rect x="310" y="770" width="260" height="120" rx="18" fill="#fff" stroke="#d4b283" stroke-width="2" />
  <rect x="330" y="790" width="80" height="80" rx="12" fill="#c2a066" opacity="0.5" />
  <rect x="430" y="790" width="120" height="20" rx="10" fill="#d0a16a" opacity="0.7" />
  <rect x="430" y="820" width="100" height="14" rx="7" fill="#d0a16a" opacity="0.5" />

  <text x="450" y="990" text-anchor="middle" font-family="Cormorant, 'Times New Roman', serif" font-size="42" fill="#9d7a54">QR Vivo</text>
</svg>
